<?xml version="1.0" encoding="UTF-8" standalone="no"?>
<!DOCTYPE svg PUBLIC "-//W3C//DTD SVG 1.0//EN" "http://www.w3.org/TR/2001/PR-SVG-20010719/DTD/svg10.dtd">
<svg width="10cm" height="7cm" viewBox="-221 219 183 123" xmlns="http://www.w3.org/2000/svg" xmlns:xlink="http://www.w3.org/1999/xlink">
  <g>
    <rect style="fill: #ffffff" x="-190" y="300" width="120" height="40" rx="16" ry="16"/>
    <rect style="fill: none; fill-opacity:0; stroke-width: 3; stroke-linejoin: round; stroke: #000000" x="-190" y="300" width="120" height="40" rx="16" ry="16"/>
  </g>
  <g>
    <rect style="fill: #ffffff" x="-220" y="220" width="80" height="36" rx="10" ry="10"/>
    <rect style="fill: none; fill-opacity:0; stroke-width: 2; stroke-linejoin: round; stroke: #000000" x="-220" y="220" width="80" height="36" rx="10" ry="10"/>
    <text font-size="12.8" style="fill: #000000;text-anchor:middle;font-family:TeX Gyre Adventor;font-style:normal;font-weight:normal" x="-180" y="244.85">
      <tspan x="-180" y="244.85"></tspan>
    </text>
  </g>
  <text font-size="12.8" style="fill: #000000;text-anchor:middle;font-family:TeX Gyre Adventor;font-style:normal;font-weight:normal" x="-180" y="235.5">
    <tspan x="-180" y="235.5">«Mammal»</tspan>
    <tspan x="-180" y="251.5">Doggo</tspan>
  </text>
  <g>
    <rect style="fill: #ffffff" x="-120" y="220" width="80" height="36" rx="10" ry="10"/>
    <rect style="fill: none; fill-opacity:0; stroke-width: 2; stroke-linejoin: round; stroke: #000000" x="-120" y="220" width="80" height="36" rx="10" ry="10"/>
    <text font-size="12.8" style="fill: #000000;text-anchor:middle;font-family:TeX Gyre Adventor;font-style:normal;font-weight:normal" x="-80" y="244.85">
      <tspan x="-80" y="244.85"></tspan>
    </text>
  </g>
  <text font-size="12.8" style="fill: #000000;text-anchor:middle;font-family:TeX Gyre Adventor;font-style:normal;font-weight:normal" x="-80" y="235.5">
    <tspan x="-80" y="235.5">«Size»</tspan>
    <tspan x="-80" y="251.5">Smol</tspan>
  </text>
  <text font-size="12.8" style="fill: #000000;text-anchor:middle;font-family:TeX Gyre Adventor;font-style:normal;font-weight:normal" x="-130" y="317.5">
    <tspan x="-130" y="317.5">«Doggo,Smol»</tspan>
    <tspan x="-130" y="333.5">Pupper</tspan>
  </text>
  <g>
    <polyline style="fill: none; fill-opacity:0; stroke-width: 2; stroke: #000000" points="-180,274.236 -180,286 -130,286 -130,300 "/>
    <polygon style="fill: #ffffff" points="-172,274.236 -180,258.236 -188,274.236 "/>
    <polygon style="fill: none; fill-opacity:0; stroke-width: 2; stroke: #000000" points="-172,274.236 -180,258.236 -188,274.236 "/>
  </g>
  <g>
    <polyline style="fill: none; fill-opacity:0; stroke-width: 2; stroke: #000000" points="-80,274.236 -80,286 -130,286 -130,300 "/>
    <polygon style="fill: #ffffff" points="-72,274.236 -80,258.236 -88,274.236 "/>
    <polygon style="fill: none; fill-opacity:0; stroke-width: 2; stroke: #000000" points="-72,274.236 -80,258.236 -88,274.236 "/>
  </g>
</svg>
