<?xml version="1.0" encoding="UTF-8"?>
<svg xmlns="http://www.w3.org/2000/svg" width="791" height="129">
   <defs>
      <style type="text/css">
    @namespace "http://www.w3.org/2000/svg";
    .line                 {fill: none; stroke: #332200; stroke-width: 1;}
    .bold-line            {stroke: #140E00; shape-rendering: crispEdges; stroke-width: 2;}
    .thin-line            {stroke: #1F1400; shape-rendering: crispEdges}
    .filled               {fill: #332200; stroke: none;}
    text.terminal         {font-family: Verdana, Sans-serif;
                            font-size: 12px;
                            fill: #140E00;
                            font-weight: bold;
                          }
    text.nonterminal      {font-family: Verdana, Sans-serif;
                            font-size: 12px;
                            fill: #1A1100;
                            font-weight: normal;
                          }
    text.regexp           {font-family: Verdana, Sans-serif;
                            font-size: 12px;
                            fill: #1F1400;
                            font-weight: normal;
                          }
    rect, circle, polygon {fill: #332200; stroke: #332200;}
    rect.terminal         {fill: #FFC34D; stroke: #332200; stroke-width: 1;}
    rect.nonterminal      {fill: #FFDF9E; stroke: #332200; stroke-width: 1;}
    rect.text             {fill: none; stroke: none;}
    polygon.regexp        {fill: #FFECC7; stroke: #332200; stroke-width: 1;}
  </style>
   </defs>
   <polygon points="9 33 1 29 1 37"/>
   <polygon points="17 33 9 29 9 37"/>
   <a xmlns:xlink="http://www.w3.org/1999/xlink"
      xlink:href="#Function"
      xlink:title="Function">
      <rect x="31" y="19" width="74" height="32"/>
      <rect x="29" y="17" width="74" height="32" class="nonterminal"/>
      <text class="nonterminal" x="39" y="37">Function</text>
   </a>
   <a xmlns:xlink="http://www.w3.org/1999/xlink"
      xlink:href="#Name"
      xlink:title="Name">
      <rect x="125" y="19" width="56" height="32"/>
      <rect x="123" y="17" width="56" height="32" class="nonterminal"/>
      <text class="nonterminal" x="133" y="37">Name</text>
   </a>
   <rect x="221" y="19" width="36" height="32" rx="10"/>
   <rect x="219"
         y="17"
         width="36"
         height="32"
         class="terminal"
         rx="10"/>
   <text class="terminal" x="229" y="37">\n</text>
   <a xmlns:xlink="http://www.w3.org/1999/xlink"
      xlink:href="#Preconditions"
      xlink:title="Preconditions">
      <rect x="317" y="51" width="106" height="32"/>
      <rect x="315" y="49" width="106" height="32" class="nonterminal"/>
      <text class="nonterminal" x="325" y="69">Preconditions</text>
   </a>
   <rect x="317" y="95" width="94" height="32" rx="10"/>
   <rect x="315"
         y="93"
         width="94"
         height="32"
         class="terminal"
         rx="10"/>
   <text class="terminal" x="325" y="113">Otherwise,</text>
   <rect x="463" y="51" width="36" height="32" rx="10"/>
   <rect x="461"
         y="49"
         width="36"
         height="32"
         class="terminal"
         rx="10"/>
   <text class="terminal" x="471" y="69">\n</text>
   <rect x="519" y="51" width="50" height="32" rx="10"/>
   <rect x="517"
         y="49"
         width="50"
         height="32"
         class="terminal"
         rx="10"/>
   <text class="terminal" x="527" y="69">\tab</text>
   <a xmlns:xlink="http://www.w3.org/1999/xlink"
      xlink:href="#FRAGRequirement"
      xlink:title="FRAGRequirement">
      <rect x="609" y="19" width="134" height="32"/>
      <rect x="607" y="17" width="134" height="32" class="nonterminal"/>
      <text class="nonterminal" x="617" y="37">FRAGRequirement</text>
   </a>
   <path class="line"
         d="m17 33 h2 m0 0 h10 m74 0 h10 m0 0 h10 m56 0 h10 m20 0 h10 m36 0 h10 m20 0 h10 m0 0 h282 m-312 0 h20 m292 0 h20 m-332 0 q10 0 10 10 m312 0 q0 -10 10 -10 m-322 10 v12 m312 0 v-12 m-312 12 q0 10 10 10 m292 0 q10 0 10 -10 m-282 10 h10 m106 0 h10 m-146 0 h20 m126 0 h20 m-166 0 q10 0 10 10 m146 0 q0 -10 10 -10 m-156 10 v24 m146 0 v-24 m-146 24 q0 10 10 10 m126 0 q10 0 10 -10 m-136 10 h10 m94 0 h10 m0 0 h12 m20 -44 h10 m36 0 h10 m0 0 h10 m50 0 h10 m20 -32 h10 m134 0 h10 m-562 0 l20 0 m-1 0 q-9 0 -9 -10 l0 -12 q0 -10 10 -10 m542 32 l20 0 m-20 0 q10 0 10 -10 l0 -12 q0 -10 -10 -10 m-542 0 h10 m0 0 h532 m23 32 h-3"/>
   <polygon points="781 33 789 29 789 37"/>
   <polygon points="781 33 773 29 773 37"/>
</svg>
