<?xml version="1.0" encoding="UTF-8" standalone="no"?>
<!-- Created with Inkscape (http://www.inkscape.org/) -->

<svg
   width="115.91578mm"
   height="158.48741mm"
   viewBox="0 0 115.91578 158.48741"
   version="1.1"
   id="svg1"
   xml:space="preserve"
   xmlns="http://www.w3.org/2000/svg"
   xmlns:svg="http://www.w3.org/2000/svg"><defs
     id="defs1" /><g
     id="layer1"
     transform="translate(-35.807578,-75.545184)"><path
       style="fill:#ffb06f;stroke-width:0.264583"
       d="m 79.9944,195.49525 13.92188,-0.10089 -0.20177,14.62806 c 1.17416,6.33488 9.23294,16.52627 19.26868,17.04925 l 0.20177,6.86006 -77.377381,0.10088 0.100883,-6.25475 c 7.046048,0.0855 16.039593,-4.52927 19.369567,-16.54484 L 55.076263,97.6386 C 54.738043,89.733418 44.021387,81.149906 35.807579,80.891998 l 0.100883,-5.346808 77.074728,0.201766 v 6.658289 c -7.9364,0.162925 -12.03795,4.124074 -14.09889,6.860053 h 45.37267 c 9.01493,0.645723 8.70081,8.866102 5.14504,11.828082 l -55.6875,63.43074 v 6.15387 H 80.09528 l -0.10088,-29.15523 13.72011,0.20177 v 6.5574 l 30.87025,-35.71262 c 5.2377,-5.03022 2.58068,-11.9037 -1.51325,-12.71128 H 93.41186 l 0.40353,17.35189 -14.022755,-0.20177 0.302645,-34.703788 -11.298911,-0.201766 v 41.866494 h 36.418821 l -9.07948,10.89538 -27.339341,-0.20176 v 43.0771 h 33.694971 c 5.10581,0.046 10.37147,-3.47765 10.49185,-6.95919 v -17.76435 l 13.82099,-15.83149 c 21.22283,29.43111 -11.31588,52.68278 -24.81725,51.14776 l -33.190561,0.10089 0.201768,39.44531 H 80.19617 Z"
       id="path1" /></g></svg>
