<?xml version="1.0" encoding="UTF-8"?>
<svg xmlns="http://www.w3.org/2000/svg" width="653" height="97">
   <defs>
      <style type="text/css">
    @namespace "http://www.w3.org/2000/svg";
    .line                 {fill: none; stroke: #332200; stroke-width: 1;}
    .bold-line            {stroke: #140E00; shape-rendering: crispEdges; stroke-width: 2;}
    .thin-line            {stroke: #1F1400; shape-rendering: crispEdges}
    .filled               {fill: #332200; stroke: none;}
    text.terminal         {font-family: Verdana, Sans-serif;
                            font-size: 12px;
                            fill: #140E00;
                            font-weight: bold;
                          }
    text.nonterminal      {font-family: Verdana, Sans-serif;
                            font-size: 12px;
                            fill: #1A1100;
                            font-weight: normal;
                          }
    text.regexp           {font-family: Verdana, Sans-serif;
                            font-size: 12px;
                            fill: #1F1400;
                            font-weight: normal;
                          }
    rect, circle, polygon {fill: #332200; stroke: #332200;}
    rect.terminal         {fill: #FFC34D; stroke: #332200; stroke-width: 1;}
    rect.nonterminal      {fill: #FFDF9E; stroke: #332200; stroke-width: 1;}
    rect.text             {fill: none; stroke: none;}
    polygon.regexp        {fill: #FFECC7; stroke: #332200; stroke-width: 1;}
  </style>
   </defs>
   <polygon points="9 33 1 29 1 37"/>
   <polygon points="17 33 9 29 9 37"/>
   <rect x="31" y="19" width="58" height="32" rx="10"/>
   <rect x="29"
         y="17"
         width="58"
         height="32"
         class="terminal"
         rx="10"/>
   <text class="terminal" x="39" y="37">While</text>
   <a xmlns:xlink="http://www.w3.org/1999/xlink"
      xlink:href="#Measurable"
      xlink:title="Measurable">
      <rect x="129" y="19" width="94" height="32"/>
      <rect x="127" y="17" width="94" height="32" class="nonterminal"/>
      <text class="nonterminal" x="137" y="37">Measurable</text>
   </a>
   <a xmlns:xlink="http://www.w3.org/1999/xlink"
      xlink:href="#Comparitor"
      xlink:title="Comparitor">
      <rect x="243" y="19" width="90" height="32"/>
      <rect x="241" y="17" width="90" height="32" class="nonterminal"/>
      <text class="nonterminal" x="251" y="37">Comparitor</text>
   </a>
   <a xmlns:xlink="http://www.w3.org/1999/xlink"
      xlink:href="#Expression"
      xlink:title="Expression">
      <rect x="353" y="19" width="90" height="32"/>
      <rect x="351" y="17" width="90" height="32" class="nonterminal"/>
      <text class="nonterminal" x="361" y="37">Expression</text>
   </a>
   <a xmlns:xlink="http://www.w3.org/1999/xlink"
      xlink:href="#Units"
      xlink:title="Units">
      <rect x="463" y="19" width="52" height="32"/>
      <rect x="461" y="17" width="52" height="32" class="nonterminal"/>
      <text class="nonterminal" x="471" y="37">Units</text>
   </a>
   <rect x="555" y="19" width="30" height="32" rx="10"/>
   <rect x="553"
         y="17"
         width="30"
         height="32"
         class="terminal"
         rx="10"/>
   <text class="terminal" x="563" y="37">&amp;</text>
   <rect x="555" y="63" width="24" height="32" rx="10"/>
   <rect x="553"
         y="61"
         width="24"
         height="32"
         class="terminal"
         rx="10"/>
   <text class="terminal" x="563" y="81">,</text>
   <path class="line"
         d="m17 33 h2 m0 0 h10 m58 0 h10 m20 0 h10 m94 0 h10 m0 0 h10 m90 0 h10 m0 0 h10 m90 0 h10 m0 0 h10 m52 0 h10 m20 0 h10 m30 0 h10 m-70 0 h20 m50 0 h20 m-90 0 q10 0 10 10 m70 0 q0 -10 10 -10 m-80 10 v24 m70 0 v-24 m-70 24 q0 10 10 10 m50 0 q10 0 10 -10 m-60 10 h10 m24 0 h10 m0 0 h6 m-496 -44 l20 0 m-1 0 q-9 0 -9 -10 l0 -12 q0 -10 10 -10 m496 32 l20 0 m-20 0 q10 0 10 -10 l0 -12 q0 -10 -10 -10 m-496 0 h10 m0 0 h486 m23 32 h-3"/>
   <polygon points="643 33 651 29 651 37"/>
   <polygon points="643 33 635 29 635 37"/>
</svg>
