<?xml version="1.0" encoding="UTF-8"?>
<svg xmlns="http://www.w3.org/2000/svg" width="745" height="81">
   <defs>
      <style type="text/css">
    @namespace "http://www.w3.org/2000/svg";
    .line                 {fill: none; stroke: #332200; stroke-width: 1;}
    .bold-line            {stroke: #140E00; shape-rendering: crispEdges; stroke-width: 2;}
    .thin-line            {stroke: #1F1400; shape-rendering: crispEdges}
    .filled               {fill: #332200; stroke: none;}
    text.terminal         {font-family: Verdana, Sans-serif;
                            font-size: 12px;
                            fill: #140E00;
                            font-weight: bold;
                          }
    text.nonterminal      {font-family: Verdana, Sans-serif;
                            font-size: 12px;
                            fill: #1A1100;
                            font-weight: normal;
                          }
    text.regexp           {font-family: Verdana, Sans-serif;
                            font-size: 12px;
                            fill: #1F1400;
                            font-weight: normal;
                          }
    rect, circle, polygon {fill: #332200; stroke: #332200;}
    rect.terminal         {fill: #FFC34D; stroke: #332200; stroke-width: 1;}
    rect.nonterminal      {fill: #FFDF9E; stroke: #332200; stroke-width: 1;}
    rect.text             {fill: none; stroke: none;}
    polygon.regexp        {fill: #FFECC7; stroke: #332200; stroke-width: 1;}
  </style>
   </defs>
   <polygon points="9 17 1 13 1 21"/>
   <polygon points="17 17 9 13 9 21"/>
   <rect x="51" y="3" width="56" height="32" rx="10"/>
   <rect x="49"
         y="1"
         width="56"
         height="32"
         class="terminal"
         rx="10"/>
   <text class="terminal" x="59" y="21">when</text>
   <rect x="51" y="47" width="58" height="32" rx="10"/>
   <rect x="49"
         y="45"
         width="58"
         height="32"
         class="terminal"
         rx="10"/>
   <text class="terminal" x="59" y="65">When</text>
   <a xmlns:xlink="http://www.w3.org/1999/xlink"
      xlink:href="#Measurable"
      xlink:title="Measurable">
      <rect x="149" y="3" width="94" height="32"/>
      <rect x="147" y="1" width="94" height="32" class="nonterminal"/>
      <text class="nonterminal" x="157" y="21">Measurable</text>
   </a>
   <rect x="263" y="3" width="78" height="32" rx="10"/>
   <rect x="261"
         y="1"
         width="78"
         height="32"
         class="terminal"
         rx="10"/>
   <text class="terminal" x="271" y="21">becomes</text>
   <a xmlns:xlink="http://www.w3.org/1999/xlink"
      xlink:href="#Comparitor"
      xlink:title="Comparitor">
      <rect x="381" y="35" width="90" height="32"/>
      <rect x="379" y="33" width="90" height="32" class="nonterminal"/>
      <text class="nonterminal" x="389" y="53">Comparitor</text>
   </a>
   <a xmlns:xlink="http://www.w3.org/1999/xlink"
      xlink:href="#Expression"
      xlink:title="Expression">
      <rect x="511" y="3" width="90" height="32"/>
      <rect x="509" y="1" width="90" height="32" class="nonterminal"/>
      <text class="nonterminal" x="519" y="21">Expression</text>
   </a>
   <a xmlns:xlink="http://www.w3.org/1999/xlink"
      xlink:href="#Units"
      xlink:title="Units">
      <rect x="621" y="3" width="52" height="32"/>
      <rect x="619" y="1" width="52" height="32" class="nonterminal"/>
      <text class="nonterminal" x="629" y="21">Units</text>
   </a>
   <rect x="693" y="3" width="24" height="32" rx="10"/>
   <rect x="691"
         y="1"
         width="24"
         height="32"
         class="terminal"
         rx="10"/>
   <text class="terminal" x="701" y="21">,</text>
   <path class="line"
         d="m17 17 h2 m20 0 h10 m56 0 h10 m0 0 h2 m-98 0 h20 m78 0 h20 m-118 0 q10 0 10 10 m98 0 q0 -10 10 -10 m-108 10 v24 m98 0 v-24 m-98 24 q0 10 10 10 m78 0 q10 0 10 -10 m-88 10 h10 m58 0 h10 m20 -44 h10 m94 0 h10 m0 0 h10 m78 0 h10 m20 0 h10 m0 0 h100 m-130 0 h20 m110 0 h20 m-150 0 q10 0 10 10 m130 0 q0 -10 10 -10 m-140 10 v12 m130 0 v-12 m-130 12 q0 10 10 10 m110 0 q10 0 10 -10 m-120 10 h10 m90 0 h10 m20 -32 h10 m90 0 h10 m0 0 h10 m52 0 h10 m0 0 h10 m24 0 h10 m3 0 h-3"/>
   <polygon points="735 17 743 13 743 21"/>
   <polygon points="735 17 727 13 727 21"/>
</svg>
