<?xml version="1.0" encoding="UTF-8"?>
<svg xmlns="http://www.w3.org/2000/svg" width="563" height="125">
   <defs>
      <style type="text/css">
    @namespace "http://www.w3.org/2000/svg";
    .line                 {fill: none; stroke: #332200; stroke-width: 1;}
    .bold-line            {stroke: #140E00; shape-rendering: crispEdges; stroke-width: 2;}
    .thin-line            {stroke: #1F1400; shape-rendering: crispEdges}
    .filled               {fill: #332200; stroke: none;}
    text.terminal         {font-family: Verdana, Sans-serif;
                            font-size: 12px;
                            fill: #140E00;
                            font-weight: bold;
                          }
    text.nonterminal      {font-family: Verdana, Sans-serif;
                            font-size: 12px;
                            fill: #1A1100;
                            font-weight: normal;
                          }
    text.regexp           {font-family: Verdana, Sans-serif;
                            font-size: 12px;
                            fill: #1F1400;
                            font-weight: normal;
                          }
    rect, circle, polygon {fill: #332200; stroke: #332200;}
    rect.terminal         {fill: #FFC34D; stroke: #332200; stroke-width: 1;}
    rect.nonterminal      {fill: #FFDF9E; stroke: #332200; stroke-width: 1;}
    rect.text             {fill: none; stroke: none;}
    polygon.regexp        {fill: #FFECC7; stroke: #332200; stroke-width: 1;}
  </style>
   </defs>
   <polygon points="9 17 1 13 1 21"/>
   <polygon points="17 17 9 13 9 21"/>
   <rect x="51" y="3" width="74" height="32" rx="10"/>
   <rect x="49"
         y="1"
         width="74"
         height="32"
         class="terminal"
         rx="10"/>
   <text class="terminal" x="59" y="21">produce</text>
   <rect x="51" y="47" width="40" height="32" rx="10"/>
   <rect x="49"
         y="45"
         width="40"
         height="32"
         class="terminal"
         rx="10"/>
   <text class="terminal" x="59" y="65">set</text>
   <rect x="51" y="91" width="70" height="32" rx="10"/>
   <rect x="49"
         y="89"
         width="70"
         height="32"
         class="terminal"
         rx="10"/>
   <text class="terminal" x="59" y="109">actuate</text>
   <a xmlns:xlink="http://www.w3.org/1999/xlink"
      xlink:href="#Measurable"
      xlink:title="Measurable">
      <rect x="165" y="3" width="94" height="32"/>
      <rect x="163" y="1" width="94" height="32" class="nonterminal"/>
      <text class="nonterminal" x="173" y="21">Measurable</text>
   </a>
   <rect x="299" y="3" width="34" height="32" rx="10"/>
   <rect x="297"
         y="1"
         width="34"
         height="32"
         class="terminal"
         rx="10"/>
   <text class="terminal" x="307" y="21">as</text>
   <rect x="299" y="47" width="34" height="32" rx="10"/>
   <rect x="297"
         y="45"
         width="34"
         height="32"
         class="terminal"
         rx="10"/>
   <text class="terminal" x="307" y="65">to</text>
   <a xmlns:xlink="http://www.w3.org/1999/xlink"
      xlink:href="#Expression"
      xlink:title="Expression">
      <rect x="373" y="3" width="90" height="32"/>
      <rect x="371" y="1" width="90" height="32" class="nonterminal"/>
      <text class="nonterminal" x="381" y="21">Expression</text>
   </a>
   <a xmlns:xlink="http://www.w3.org/1999/xlink"
      xlink:href="#Units"
      xlink:title="Units">
      <rect x="483" y="3" width="52" height="32"/>
      <rect x="481" y="1" width="52" height="32" class="nonterminal"/>
      <text class="nonterminal" x="491" y="21">Units</text>
   </a>
   <path class="line"
         d="m17 17 h2 m20 0 h10 m74 0 h10 m-114 0 h20 m94 0 h20 m-134 0 q10 0 10 10 m114 0 q0 -10 10 -10 m-124 10 v24 m114 0 v-24 m-114 24 q0 10 10 10 m94 0 q10 0 10 -10 m-104 10 h10 m40 0 h10 m0 0 h34 m-104 -10 v20 m114 0 v-20 m-114 20 v24 m114 0 v-24 m-114 24 q0 10 10 10 m94 0 q10 0 10 -10 m-104 10 h10 m70 0 h10 m0 0 h4 m20 -88 h10 m94 0 h10 m20 0 h10 m34 0 h10 m-74 0 h20 m54 0 h20 m-94 0 q10 0 10 10 m74 0 q0 -10 10 -10 m-84 10 v24 m74 0 v-24 m-74 24 q0 10 10 10 m54 0 q10 0 10 -10 m-64 10 h10 m34 0 h10 m20 -44 h10 m90 0 h10 m0 0 h10 m52 0 h10 m3 0 h-3"/>
   <polygon points="553 17 561 13 561 21"/>
   <polygon points="553 17 545 13 545 21"/>
</svg>
