<?xml version="1.0" encoding="UTF-8"?>
<svg xmlns="http://www.w3.org/2000/svg" width="849" height="97">
   <defs>
      <style type="text/css">
    @namespace "http://www.w3.org/2000/svg";
    .line                 {fill: none; stroke: #332200; stroke-width: 1;}
    .bold-line            {stroke: #140E00; shape-rendering: crispEdges; stroke-width: 2;}
    .thin-line            {stroke: #1F1400; shape-rendering: crispEdges}
    .filled               {fill: #332200; stroke: none;}
    text.terminal         {font-family: Verdana, Sans-serif;
                            font-size: 12px;
                            fill: #140E00;
                            font-weight: bold;
                          }
    text.nonterminal      {font-family: Verdana, Sans-serif;
                            font-size: 12px;
                            fill: #1A1100;
                            font-weight: normal;
                          }
    text.regexp           {font-family: Verdana, Sans-serif;
                            font-size: 12px;
                            fill: #1F1400;
                            font-weight: normal;
                          }
    rect, circle, polygon {fill: #332200; stroke: #332200;}
    rect.terminal         {fill: #FFC34D; stroke: #332200; stroke-width: 1;}
    rect.nonterminal      {fill: #FFDF9E; stroke: #332200; stroke-width: 1;}
    rect.text             {fill: none; stroke: none;}
    polygon.regexp        {fill: #FFECC7; stroke: #332200; stroke-width: 1;}
  </style>
   </defs>
   <polygon points="9 33 1 29 1 37"/>
   <polygon points="17 33 9 29 9 37"/>
   <rect x="31" y="19" width="50" height="32" rx="10"/>
   <rect x="29"
         y="17"
         width="50"
         height="32"
         class="terminal"
         rx="10"/>
   <text class="terminal" x="39" y="37">with</text>
   <rect x="141" y="19" width="28" height="32" rx="10"/>
   <rect x="139"
         y="17"
         width="28"
         height="32"
         class="terminal"
         rx="10"/>
   <text class="terminal" x="149" y="37">a</text>
   <rect x="141" y="63" width="36" height="32" rx="10"/>
   <rect x="139"
         y="61"
         width="36"
         height="32"
         class="terminal"
         rx="10"/>
   <text class="terminal" x="149" y="81">an</text>
   <a xmlns:xlink="http://www.w3.org/1999/xlink"
      xlink:href="#DegreeOfFreedom"
      xlink:title="DegreeOfFreedom">
      <rect x="217" y="19" width="136" height="32"/>
      <rect x="215" y="17" width="136" height="32" class="nonterminal"/>
      <text class="nonterminal" x="225" y="37">DegreeOfFreedom</text>
   </a>
   <rect x="373" y="19" width="32" height="32" rx="10"/>
   <rect x="371"
         y="17"
         width="32"
         height="32"
         class="terminal"
         rx="10"/>
   <text class="terminal" x="381" y="37">of</text>
   <a xmlns:xlink="http://www.w3.org/1999/xlink"
      xlink:href="#Comparitor"
      xlink:title="Comparitor">
      <rect x="425" y="19" width="90" height="32"/>
      <rect x="423" y="17" width="90" height="32" class="nonterminal"/>
      <text class="nonterminal" x="433" y="37">Comparitor</text>
   </a>
   <a xmlns:xlink="http://www.w3.org/1999/xlink"
      xlink:href="#Expression"
      xlink:title="Expression">
      <rect x="535" y="19" width="90" height="32"/>
      <rect x="533" y="17" width="90" height="32" class="nonterminal"/>
      <text class="nonterminal" x="543" y="37">Expression</text>
   </a>
   <a xmlns:xlink="http://www.w3.org/1999/xlink"
      xlink:href="#Units"
      xlink:title="Units">
      <rect x="645" y="19" width="52" height="32"/>
      <rect x="643" y="17" width="52" height="32" class="nonterminal"/>
      <text class="nonterminal" x="653" y="37">Units</text>
   </a>
   <rect x="737" y="19" width="24" height="32" rx="10"/>
   <rect x="735"
         y="17"
         width="24"
         height="32"
         class="terminal"
         rx="10"/>
   <text class="terminal" x="745" y="37">,</text>
   <rect x="737" y="63" width="44" height="32" rx="10"/>
   <rect x="735"
         y="61"
         width="44"
         height="32"
         class="terminal"
         rx="10"/>
   <text class="terminal" x="745" y="81">and</text>
   <path class="line"
         d="m17 33 h2 m0 0 h10 m50 0 h10 m40 0 h10 m28 0 h10 m0 0 h8 m-76 0 h20 m56 0 h20 m-96 0 q10 0 10 10 m76 0 q0 -10 10 -10 m-86 10 v24 m76 0 v-24 m-76 24 q0 10 10 10 m56 0 q10 0 10 -10 m-66 10 h10 m36 0 h10 m20 -44 h10 m136 0 h10 m0 0 h10 m32 0 h10 m0 0 h10 m90 0 h10 m0 0 h10 m90 0 h10 m0 0 h10 m52 0 h10 m20 0 h10 m24 0 h10 m0 0 h20 m-84 0 h20 m64 0 h20 m-104 0 q10 0 10 10 m84 0 q0 -10 10 -10 m-94 10 v24 m84 0 v-24 m-84 24 q0 10 10 10 m64 0 q10 0 10 -10 m-74 10 h10 m44 0 h10 m-700 -44 l20 0 m-1 0 q-9 0 -9 -10 l0 -12 q0 -10 10 -10 m700 32 l20 0 m-20 0 q10 0 10 -10 l0 -12 q0 -10 -10 -10 m-700 0 h10 m0 0 h690 m23 32 h-3"/>
   <polygon points="839 33 847 29 847 37"/>
   <polygon points="839 33 831 29 831 37"/>
</svg>
