<?xml version="1.0" encoding="UTF-8"?>
<svg xmlns="http://www.w3.org/2000/svg" width="659" height="81">
   <defs>
      <style type="text/css">
    @namespace "http://www.w3.org/2000/svg";
    .line                 {fill: none; stroke: #332200; stroke-width: 1;}
    .bold-line            {stroke: #140E00; shape-rendering: crispEdges; stroke-width: 2;}
    .thin-line            {stroke: #1F1400; shape-rendering: crispEdges}
    .filled               {fill: #332200; stroke: none;}
    text.terminal         {font-family: Verdana, Sans-serif;
                            font-size: 12px;
                            fill: #140E00;
                            font-weight: bold;
                          }
    text.nonterminal      {font-family: Verdana, Sans-serif;
                            font-size: 12px;
                            fill: #1A1100;
                            font-weight: normal;
                          }
    text.regexp           {font-family: Verdana, Sans-serif;
                            font-size: 12px;
                            fill: #1F1400;
                            font-weight: normal;
                          }
    rect, circle, polygon {fill: #332200; stroke: #332200;}
    rect.terminal         {fill: #FFC34D; stroke: #332200; stroke-width: 1;}
    rect.nonterminal      {fill: #FFDF9E; stroke: #332200; stroke-width: 1;}
    rect.text             {fill: none; stroke: none;}
    polygon.regexp        {fill: #FFECC7; stroke: #332200; stroke-width: 1;}
  </style>
   </defs>
   <polygon points="9 17 1 13 1 21"/>
   <polygon points="17 17 9 13 9 21"/>
   <a xmlns:xlink="http://www.w3.org/1999/xlink"
      xlink:href="#Subject"
      xlink:title="Subject">
      <rect x="31" y="3" width="66" height="32"/>
      <rect x="29" y="1" width="66" height="32" class="nonterminal"/>
      <text class="nonterminal" x="39" y="21">Subject</text>
   </a>
   <a xmlns:xlink="http://www.w3.org/1999/xlink"
      xlink:href="#Operator"
      xlink:title="Operator">
      <rect x="117" y="3" width="76" height="32"/>
      <rect x="115" y="1" width="76" height="32" class="nonterminal"/>
      <text class="nonterminal" x="125" y="21">Operator</text>
   </a>
   <rect x="213" y="3" width="52" height="32" rx="10"/>
   <rect x="211"
         y="1"
         width="52"
         height="32"
         class="terminal"
         rx="10"/>
   <text class="terminal" x="221" y="21">have</text>
   <rect x="305" y="3" width="28" height="32" rx="10"/>
   <rect x="303"
         y="1"
         width="28"
         height="32"
         class="terminal"
         rx="10"/>
   <text class="terminal" x="313" y="21">a</text>
   <rect x="305" y="47" width="36" height="32" rx="10"/>
   <rect x="303"
         y="45"
         width="36"
         height="32"
         class="terminal"
         rx="10"/>
   <text class="terminal" x="313" y="65">an</text>
   <a xmlns:xlink="http://www.w3.org/1999/xlink"
      xlink:href="#Measurable"
      xlink:title="Measurable">
      <rect x="381" y="3" width="94" height="32"/>
      <rect x="379" y="1" width="94" height="32" class="nonterminal"/>
      <text class="nonterminal" x="389" y="21">Measurable</text>
   </a>
   <a xmlns:xlink="http://www.w3.org/1999/xlink"
      xlink:href="#Constraints"
      xlink:title="Constraints">
      <rect x="495" y="3" width="92" height="32"/>
      <rect x="493" y="1" width="92" height="32" class="nonterminal"/>
      <text class="nonterminal" x="503" y="21">Constraints</text>
   </a>
   <rect x="607" y="3" width="24" height="32" rx="10"/>
   <rect x="605"
         y="1"
         width="24"
         height="32"
         class="terminal"
         rx="10"/>
   <text class="terminal" x="615" y="21">.</text>
   <path class="line"
         d="m17 17 h2 m0 0 h10 m66 0 h10 m0 0 h10 m76 0 h10 m0 0 h10 m52 0 h10 m20 0 h10 m28 0 h10 m0 0 h8 m-76 0 h20 m56 0 h20 m-96 0 q10 0 10 10 m76 0 q0 -10 10 -10 m-86 10 v24 m76 0 v-24 m-76 24 q0 10 10 10 m56 0 q10 0 10 -10 m-66 10 h10 m36 0 h10 m20 -44 h10 m94 0 h10 m0 0 h10 m92 0 h10 m0 0 h10 m24 0 h10 m3 0 h-3"/>
   <polygon points="649 17 657 13 657 21"/>
   <polygon points="649 17 641 13 641 21"/>
</svg>
