<?xml version="1.0" encoding="UTF-8"?>
<svg xmlns="http://www.w3.org/2000/svg" width="475" height="53">
   <defs>
      <style type="text/css">
    @namespace "http://www.w3.org/2000/svg";
    .line                 {fill: none; stroke: #332200; stroke-width: 1;}
    .bold-line            {stroke: #140E00; shape-rendering: crispEdges; stroke-width: 2;}
    .thin-line            {stroke: #1F1400; shape-rendering: crispEdges}
    .filled               {fill: #332200; stroke: none;}
    text.terminal         {font-family: Verdana, Sans-serif;
                            font-size: 12px;
                            fill: #140E00;
                            font-weight: bold;
                          }
    text.nonterminal      {font-family: Verdana, Sans-serif;
                            font-size: 12px;
                            fill: #1A1100;
                            font-weight: normal;
                          }
    text.regexp           {font-family: Verdana, Sans-serif;
                            font-size: 12px;
                            fill: #1F1400;
                            font-weight: normal;
                          }
    rect, circle, polygon {fill: #332200; stroke: #332200;}
    rect.terminal         {fill: #FFC34D; stroke: #332200; stroke-width: 1;}
    rect.nonterminal      {fill: #FFDF9E; stroke: #332200; stroke-width: 1;}
    rect.text             {fill: none; stroke: none;}
    polygon.regexp        {fill: #FFECC7; stroke: #332200; stroke-width: 1;}
  </style>
   </defs>
   <polygon points="9 33 1 29 1 37"/>
   <polygon points="17 33 9 29 9 37"/>
   <a xmlns:xlink="http://www.w3.org/1999/xlink"
      xlink:href="#FunctionName"
      xlink:title="FunctionName">
      <rect x="31" y="19" width="110" height="32"/>
      <rect x="29" y="17" width="110" height="32" class="nonterminal"/>
      <text class="nonterminal" x="39" y="37">FunctionName</text>
   </a>
   <rect x="161" y="19" width="36" height="32" rx="10"/>
   <rect x="159"
         y="17"
         width="36"
         height="32"
         class="terminal"
         rx="10"/>
   <text class="terminal" x="169" y="37">\n</text>
   <a xmlns:xlink="http://www.w3.org/1999/xlink"
      xlink:href="#FRAGRequirement"
      xlink:title="FRAGRequirement">
      <rect x="237" y="19" width="134" height="32"/>
      <rect x="235" y="17" width="134" height="32" class="nonterminal"/>
      <text class="nonterminal" x="245" y="37">FRAGRequirement</text>
   </a>
   <rect x="391" y="19" width="36" height="32" rx="10"/>
   <rect x="389"
         y="17"
         width="36"
         height="32"
         class="terminal"
         rx="10"/>
   <text class="terminal" x="399" y="37">\n</text>
   <path class="line"
         d="m17 33 h2 m0 0 h10 m110 0 h10 m0 0 h10 m36 0 h10 m20 0 h10 m134 0 h10 m0 0 h10 m36 0 h10 m-230 0 l20 0 m-1 0 q-9 0 -9 -10 l0 -12 q0 -10 10 -10 m210 32 l20 0 m-20 0 q10 0 10 -10 l0 -12 q0 -10 -10 -10 m-210 0 h10 m0 0 h200 m23 32 h-3"/>
   <polygon points="465 33 473 29 473 37"/>
   <polygon points="465 33 457 29 457 37"/>
</svg>
